<svg width="15" height="24" viewBox="0 0 15 24" fill="none" xmlns="http://www.w3.org/2000/svg">
<path d="M14.7085 3.10706V0.789638C14.7085 0.588775 14.4777 0.47785 14.3218 0.600767L0.806964 11.1566C0.692137 11.2459 0.599223 11.3602 0.535309 11.4909C0.471396 11.6216 0.438171 11.7651 0.438171 11.9106C0.438171 12.056 0.471396 12.1996 0.535309 12.3303C0.599223 12.4609 0.692137 12.5753 0.806964 12.6646L14.3218 23.2204C14.4807 23.3433 14.7085 23.2324 14.7085 23.0315V20.7141C14.7085 20.5672 14.6396 20.4263 14.5256 20.3364L3.73298 11.9121L14.5256 3.48481C14.6396 3.39487 14.7085 3.25396 14.7085 3.10706Z" fill="#203060"/>
</svg>
