<svg width="17" height="17" viewBox="0 0 17 17" fill="none" xmlns="http://www.w3.org/2000/svg">
<path d="M16.1679 8.0549C16.2417 7.8088 16.2786 7.55451 16.2786 7.29611C16.2786 6.71574 16.0879 6.15793 15.7434 5.70265C15.8172 5.45656 15.8541 5.20226 15.8541 4.94386C15.8541 4.36349 15.6634 3.80568 15.3188 3.35041C15.3927 3.10431 15.4296 2.85002 15.4296 2.59162C15.4296 1.53342 14.8 0.579802 13.8238 0.163494C13.6522 0.089519 13.4672 0.0518159 13.2804 0.0527514H0.953125C0.590137 0.0527514 0.296875 0.346013 0.296875 0.709001V8.17384C0.296875 8.53683 0.590137 8.83009 0.953125 8.83009H3.60478L5.36436 15.2039C5.64736 16.2314 6.59072 16.9491 7.65713 16.9491C8.26621 16.9491 8.83428 16.7071 9.25469 16.2642C9.6751 15.8233 9.89043 15.2449 9.85967 14.6359L9.73662 12.1154H14.6564C14.9046 12.1154 15.1466 12.0498 15.3599 11.9247C16.1884 11.4428 16.7031 10.5692 16.7031 9.64836C16.7031 9.06798 16.5124 8.51017 16.1679 8.0549ZM1.77344 7.35148V1.52726H3.43457V7.35148H1.77344ZM14.6359 10.6409H8.18828L8.38516 14.7097C8.39746 14.9537 8.28877 15.1834 8.08574 15.3352C7.96064 15.4275 7.80684 15.4746 7.65303 15.4726C7.45653 15.4707 7.26594 15.4051 7.1099 15.2856C6.95385 15.1662 6.84075 14.9994 6.7876 14.8102L4.74707 7.41711V1.52726H13.266C13.471 1.61913 13.6451 1.76826 13.7673 1.95672C13.8896 2.14518 13.9548 2.36494 13.9551 2.58957C13.9551 2.78849 13.9079 2.97717 13.8136 3.14943L13.5285 3.67033L13.9776 4.05998C14.104 4.16946 14.2054 4.3049 14.2747 4.45708C14.3441 4.60925 14.3799 4.77458 14.3796 4.94181C14.3796 5.14074 14.3324 5.32941 14.2381 5.50168L13.953 6.02257L14.4021 6.41222C14.5286 6.52171 14.6299 6.65715 14.6993 6.80932C14.7686 6.96149 14.8044 7.12682 14.8041 7.29406C14.8041 7.49299 14.7569 7.68166 14.6626 7.85392L14.3755 8.37687L14.8246 8.76652C14.951 8.87601 15.0524 9.01145 15.1217 9.16362C15.1911 9.31579 15.2268 9.48112 15.2266 9.64836C15.2266 10.0401 15.001 10.4174 14.6359 10.6409Z" fill="#737989"/>
</svg>
