<svg width="18" height="17" viewBox="0 0 18 17" fill="none" xmlns="http://www.w3.org/2000/svg">
<path d="M16.621 8.94513C16.9655 8.48986 17.1562 7.93205 17.1562 7.35168C17.1562 6.43087 16.6415 5.55929 15.813 5.07326C15.5997 4.94815 15.3568 4.8823 15.1096 4.88253H10.1918L10.3148 2.36212C10.3436 1.75304 10.1282 1.17472 9.70986 0.733804C9.50455 0.516479 9.25685 0.343567 8.98207 0.225754C8.70729 0.107942 8.41127 0.0477309 8.1123 0.0488433C7.0459 0.0488433 6.10254 0.766617 5.81953 1.79406L4.05791 8.17199H4.05176V16.9493H13.7376C13.9263 16.9493 14.1108 16.9124 14.2811 16.8386C15.2572 16.4223 15.8868 15.4687 15.8868 14.4105C15.8868 14.1521 15.8499 13.8978 15.7761 13.6517C16.1206 13.1964 16.3113 12.6386 16.3113 12.0582C16.3113 11.7998 16.2744 11.5455 16.2006 11.2994C16.5451 10.8442 16.7358 10.2863 16.7358 9.70597C16.7317 9.44757 16.6948 9.19123 16.621 8.94513ZM0.75 8.82824V16.2931C0.75 16.6561 1.04326 16.9493 1.40625 16.9493H2.73926V8.17199H1.40625C1.04326 8.17199 0.75 8.46525 0.75 8.82824Z" fill="#737989"/>
</svg>
