<svg width="22" height="22" viewBox="0 0 22 22" fill="none" xmlns="http://www.w3.org/2000/svg">
<path d="M11.1179 0.5C5.31948 0.5 0.61792 5.20156 0.61792 11C0.61792 16.7984 5.31948 21.5 11.1179 21.5C16.9164 21.5 21.6179 16.7984 21.6179 11C21.6179 5.20156 16.9164 0.5 11.1179 0.5ZM11.8679 16.0625C11.8679 16.1656 11.7835 16.25 11.6804 16.25H10.5554C10.4523 16.25 10.3679 16.1656 10.3679 16.0625V9.6875C10.3679 9.58438 10.4523 9.5 10.5554 9.5H11.6804C11.7835 9.5 11.8679 9.58438 11.8679 9.6875V16.0625ZM11.1179 8C10.8235 7.99399 10.5432 7.87282 10.3371 7.6625C10.1311 7.45218 10.0157 7.16945 10.0157 6.875C10.0157 6.58055 10.1311 6.29782 10.3371 6.0875C10.5432 5.87718 10.8235 5.75601 11.1179 5.75C11.4123 5.75601 11.6926 5.87718 11.8987 6.0875C12.1048 6.29782 12.2202 6.58055 12.2202 6.875C12.2202 7.16945 12.1048 7.45218 11.8987 7.6625C11.6926 7.87282 11.4123 7.99399 11.1179 8Z" fill="#737989" fill-opacity="0.5"/>
</svg>
