<svg fill="none" height="16" viewBox="0 0 15 16" width="15" xmlns="http://www.w3.org/2000/svg"><path d="m.4869 3.68078 1.02397-.00326c.07994-.00026.14634-.06761.14609-.14817l-.00378-1.18547 11.98502-.03815.0385 12.08097-11.98696.0382-.00378-1.1855c-.00025-.0806-.06708-.1475-.14702-.1472l-1.023973.0032c-.079938.0003-.146345.0657-.146082.1482l.006118 1.9221c.001039.3261.262626.588.586186.587l13.450611-.0428c.3235-.0011.5835-.2647.5824-.5908l-.0431-13.55415c-.0011-.3261-.2627-.58807-.5862-.58704l-13.448706.04281c-.32356.00103-.583475.26466-.582437.59076l.006119 1.92206c.000262.08248.067085.14749.147024.14724zm-.338643 4.82929 2.707613 2.13983c.10113.0802.24746.0069.24705-.1217l-.00464-1.4578 5.97635-.01903c.08374-.00026.15204-.06954.15177-.15394l-.00342-1.07421c-.00027-.0844-.06901-.15323-.15275-.15297l-5.97635.01903-.00464-1.45785c-.00041-.12852-.1491-.20094-.24781-.12006l-2.693943 2.15701c-.018153.01441-.032813.0328-.042868.05377-.0100556.02097-.0152422.04397-.015168.06726.0000741.02329.0054071.04626.015596.06716.010188.02091.024965.0392.04321.0535z" fill="#fff"/></svg>