<svg width="15" height="15" viewBox="0 0 15 15" fill="none" xmlns="http://www.w3.org/2000/svg">
<path d="M14.5603 12.0734H13.5363C13.4564 12.0734 13.3898 12.1405 13.3898 12.2211V13.4065H1.40466V1.3255H13.3917V2.51097C13.3917 2.59153 13.4583 2.65867 13.5382 2.65867H14.5622C14.6422 2.65867 14.7088 2.59345 14.7088 2.51097V0.588898C14.7088 0.262798 14.448 0 14.1245 0H0.673792C0.35023 0 0.0894775 0.262798 0.0894775 0.588898V14.1431C0.0894775 14.4692 0.35023 14.732 0.673792 14.732H14.1225C14.4461 14.732 14.7069 14.4692 14.7069 14.1431V12.2211C14.7069 12.1386 14.6402 12.0734 14.5603 12.0734ZM14.9143 7.24517L12.2135 5.09675C12.1127 5.01618 11.9661 5.08907 11.9661 5.21759V6.67545H5.98972C5.90598 6.67545 5.83746 6.74451 5.83746 6.82891V7.90312C5.83746 7.98752 5.90598 8.05658 5.98972 8.05658H11.9661V9.51444C11.9661 9.64296 12.1146 9.71585 12.2135 9.63529L14.9143 7.48686C14.9325 7.47251 14.9472 7.45417 14.9574 7.43323C14.9675 7.41229 14.9727 7.38931 14.9727 7.36602C14.9727 7.34273 14.9675 7.31974 14.9574 7.2988C14.9472 7.27786 14.9325 7.25952 14.9143 7.24517Z" fill="white"/>
</svg>
